<svg width="152" height="27" fill="none" xmlns="http://www.w3.org/2000/svg"><path d="M.28516 26V.40625H9.25c3.1055 0 5.4609.59766 7.0664 1.79297 1.6055 1.18359 2.4082 2.92383 2.4082 5.2207 0 1.25391-.3223 2.36133-.9668 3.32228-.6445.9492-1.541 1.6465-2.6894 2.0918 1.3125.3281 2.3437.9902 3.0937 1.9863.7617.9961 1.1426 2.2149 1.1426 3.6563 0 2.4609-.7852 4.3242-2.3555 5.5898S13.1406 25.9766 10.2344 26H.28516Zm5.27343-11.1445v6.9082h4.51761c1.2422 0 2.209-.293 2.9004-.8789.7031-.5977 1.0546-1.418 1.0546-2.461 0-2.3437-1.2128-3.5332-3.6386-3.5683H5.55859Zm0-3.7266h3.90235c2.66016-.0469 3.99026-1.1074 3.99026-3.18163 0-1.16016-.3399-1.99219-1.0196-2.4961-.6679-.51562-1.7285-.77344-3.1816-.77344H5.55859v6.45117Zm36.71721 3.7793h-10.125v6.8555h11.8828V26H26.8773V.40625h17.1211v4.27148H32.1508v6.09957h10.125v4.1309Zm22.9008 5.8184h-9.2461L54.1727 26h-5.6075L58.0926.40625h4.8867L72.5594 26H66.952l-1.7754-5.2734Zm-7.8223-4.2715h6.3984L60.5359 6.875l-3.1816 9.5801ZM97.6047.40625V17.2637c0 2.8008-.8789 5.0156-2.6367 6.6445-1.7461 1.6289-4.1367 2.4434-7.1719 2.4434-2.9883 0-5.3613-.7911-7.1191-2.3731-1.7579-1.582-2.6543-3.7558-2.6895-6.5215V.40625h5.2734V17.2988c0 1.6758.3985 2.9004 1.1954 3.6739.8085.7617 1.9218 1.1425 3.3398 1.1425 2.9648 0 4.4707-1.5586 4.5176-4.6757V.40625h5.291Zm27.1903 4.27148h-7.84V26h-5.274V4.67773h-7.734V.40625h20.848v4.27148Zm15.728 7.25977L145.85.40625h5.765l-8.402 16.31255V26h-5.361v-9.2812L129.449.40625h5.783l5.291 11.53125Z" fill="#F13C6E"/></svg>