<svg width="80" height="80" fill="none" xmlns="http://www.w3.org/2000/svg"><g clip-path="url(#a)"><path d="M57.2204 25.3732 46.6873 35.9064l4.0783 4.0783 10.5331-10.5332-4.0783-4.0783ZM35.9094 46.7065 25.3762 57.2397l4.0783 4.0783 10.5332-10.5332-4.0783-4.0783ZM50.5173 18.706 39.9842 29.2391l4.0783 4.0783 10.5331-10.5331-4.0783-4.0783ZM29.2355 40.0106 18.7023 50.5437l4.0783 4.0783 10.5332-10.5331-4.0783-4.0783ZM22.7576 25.3729l-4.0783 4.0783 10.5331 10.5332 4.0783-4.0783-10.5331-10.5332ZM29.454 18.699l-4.0783 4.0783 10.5332 10.5331 4.0783-4.0783L29.454 18.699ZM50.7592 39.9809l-4.0783 4.0783 10.5332 10.5331 4.0783-4.0783-10.5332-10.5331ZM44.092 46.6841l-4.0783 4.0783 10.5331 10.5331 4.0783-4.0783L44.092 46.6841Z" fill="#F13C6E"/><path d="m54.6058 65.3942-4.0664-4.0664L40 71.8672 29.4606 61.3278l-4.0664 4.0664L40 80l14.6058-14.6058ZM18.6722 29.4606l-4.0664-4.0664L0 40l14.6058 14.6058 4.0664-4.0664L8.13278 40 18.6722 29.4606ZM65.3942 25.3942l-4.0664 4.0664L71.8672 40 61.3278 50.5394l4.0664 4.0664L80 40 65.3942 25.3942ZM50.5394 18.6722l4.0664-4.0664L40 0 25.3942 14.6058l4.0664 4.0664L40 8.13278 50.5394 18.6722Z" fill="#EFEFEF"/></g><defs><clipPath id="a"><path fill="#fff" d="M0 0h80v80H0z"/></clipPath></defs></svg>